<svg width="32" height="32" viewBox="0 0 32 32" fill="none" xmlns="http://www.w3.org/2000/svg">
<path fill-rule="evenodd" clip-rule="evenodd" d="M7.59479 0.834127C9.21649 0.856322 10.3722 2.09478 11.8342 3.66171C12.1957 4.0479 12.5862 4.46959 13.0232 4.91348C15.1414 7.07375 14.5389 8.836 14.0526 10.2505C13.5241 11.7938 13.0668 13.1255 15.8049 15.9161C18.5431 18.7066 19.8483 18.2406 21.3611 17.6975C22.7505 17.2033 24.4753 16.5849 26.5979 18.7451C27.0291 19.1846 27.4356 19.5782 27.8131 19.9436C29.3564 21.441 30.5759 22.6232 30.5965 24.2804C30.6122 25.692 29.7701 27.1332 27.6911 29.252L26.7706 28.6158L27.5503 29.3896C27.09 29.8705 25.8662 31.1519 23.4692 31.1667H23.4256C19.8076 31.1667 15.0906 28.2311 9.40523 22.4383C3.69661 16.6218 0.811809 11.7997 0.833465 8.10506C0.846653 5.66366 2.10249 4.41337 2.57434 3.94432L2.61461 3.89949L2.71226 3.79932C4.79565 1.67604 6.22716 0.803055 7.59479 0.834127ZM7.5672 3.05358H7.55559C6.90362 3.05358 5.91351 3.71942 4.53262 5.08645L4.25532 5.36397L4.25847 5.36329C4.26021 5.36329 4.23478 5.39099 4.19439 5.43297L4.09732 5.53197C3.74597 5.87969 3.0186 6.60323 3.01127 8.1169C2.99973 10.2343 4.3659 14.1656 10.9442 20.8684C17.4905 27.5386 21.3422 28.9472 23.4256 28.9472H23.4561C24.9413 28.9383 25.6498 28.197 25.991 27.8404C26.0941 27.7324 26.1783 27.651 26.2378 27.6022C27.6853 26.1181 28.4257 25.0158 28.4185 24.3071C28.4098 23.585 27.5285 22.7327 26.3104 21.5505C25.9228 21.1762 25.5017 20.7663 25.0575 20.3135C23.9047 19.1431 23.3371 19.3429 22.0812 19.7927C20.3463 20.4127 17.9696 21.262 14.266 17.4845C10.5609 13.7099 11.3913 11.2878 11.9968 9.51811C12.4352 8.23971 12.6356 7.65821 11.4843 6.48338C11.0342 6.02469 10.6291 5.58968 10.256 5.19018C9.10325 3.95616 8.27135 3.06394 7.5672 3.05358ZM20.0648 6.09793C23.086 6.6957 25.4191 9.072 26.0071 12.1526C26.1218 12.7563 25.7371 13.3378 25.1476 13.4547C25.0765 13.468 25.0068 13.4754 24.9371 13.4754C24.4261 13.4754 23.9717 13.1084 23.87 12.5787C23.4519 10.3889 21.7953 8.70061 19.6495 8.27596C19.0586 8.15906 18.6739 7.57757 18.7886 6.97536C18.9033 6.37314 19.484 5.97956 20.0648 6.09793ZM19.9778 0.842561C25.8984 1.51284 30.4963 6.19292 31.1598 12.2254C31.2266 12.835 30.7969 13.384 30.2002 13.452C30.1595 13.4565 30.1174 13.4594 30.0768 13.4594C29.5294 13.4594 29.059 13.0407 28.9966 12.474C28.4464 7.47873 24.6396 3.60208 19.7368 3.04722C19.1401 2.97916 18.7089 2.43169 18.7757 1.82208C18.841 1.21395 19.3738 0.76562 19.9778 0.842561Z" fill="#FBAD18"/>
</svg>
