<svg width="32" height="32" viewBox="0 0 32 32" fill="none" xmlns="http://www.w3.org/2000/svg">
<path fill-rule="evenodd" clip-rule="evenodd" d="M15.9955 0.833332C20.0483 0.833332 23.857 2.40902 26.7178 5.27121C32.6312 11.1846 32.6312 20.8052 26.7178 26.7186C23.819 29.6189 19.9157 31.1537 15.9617 31.1537C13.8062 31.1537 11.6367 30.698 9.60674 29.7585C9.00863 29.5187 8.4486 29.293 8.04657 29.293C7.58388 29.2959 6.96179 29.5103 6.36085 29.7176C5.12795 30.1408 3.59318 30.6684 2.45761 29.5371C1.32627 28.4043 1.84821 26.8738 2.26858 25.6423C2.47595 25.0357 2.68895 24.4094 2.68895 23.9354C2.68895 23.5461 2.50134 23.0495 2.21357 22.3343C-0.428564 16.6283 0.793052 9.75141 5.27466 5.27262C8.13544 2.41043 11.9428 0.833332 15.9955 0.833332ZM15.9969 2.94929C12.5084 2.94929 9.23151 4.30633 6.76994 6.76931C2.91325 10.6232 1.86373 16.5408 4.15602 21.4964C4.48611 22.3132 4.80492 23.1088 4.80492 23.9354C4.80492 24.7606 4.52138 25.5915 4.27169 26.325C4.06574 26.9288 3.75399 27.8401 3.9543 28.0404C4.15038 28.2435 5.0673 27.9233 5.67246 27.7159C6.39894 27.4677 7.22276 27.1827 8.03952 27.1771C8.85769 27.1771 9.62931 27.4874 10.4461 27.8161C15.4496 30.1295 21.3673 29.0772 25.2225 25.2233C30.3093 20.1337 30.3093 11.8547 25.2225 6.7679C22.7596 4.30492 19.4841 2.94929 15.9969 2.94929ZM21.5646 15.1693C22.3433 15.1693 22.9753 15.7998 22.9753 16.5799C22.9753 17.36 22.3433 17.9905 21.5646 17.9905C20.7859 17.9905 20.1483 17.36 20.1483 16.5799C20.1483 15.7998 20.7732 15.1693 21.5519 15.1693H21.5646ZM15.9096 15.1693C16.6883 15.1693 17.3203 15.7998 17.3203 16.5799C17.3203 17.36 16.6883 17.9905 15.9096 17.9905C15.131 17.9905 14.4933 17.36 14.4933 16.5799C14.4933 15.7998 15.1168 15.1693 15.8969 15.1693H15.9096ZM10.2541 15.1693C11.0328 15.1693 11.6647 15.7998 11.6647 16.5799C11.6647 17.36 11.0328 17.9905 10.2541 17.9905C9.47541 17.9905 8.8378 17.36 8.8378 16.5799C8.8378 15.7998 9.46272 15.1693 10.2414 15.1693H10.2541Z" fill="#FBAD18"/>
</svg>
