<svg width="31" height="24" viewBox="0 0 31 24" fill="none" xmlns="http://www.w3.org/2000/svg">
<path fill-rule="evenodd" clip-rule="evenodd" d="M22.2977 0.0833359C27.3726 0.0833359 30.7822 3.64426 30.7822 8.94222V15.0578C30.7822 20.3557 27.3726 23.9167 22.2962 23.9167H9.31637C4.24153 23.9167 0.833344 20.3557 0.833344 15.0578V8.94222C0.833344 3.64426 4.24153 0.0833359 9.31637 0.0833359H22.2977ZM22.2977 2.3295H9.31637C5.52783 2.3295 3.07951 4.92457 3.07951 8.94222V15.0578C3.07951 19.0754 5.52783 21.6705 9.31637 21.6705H22.2962C26.0863 21.6705 28.5361 19.0754 28.5361 15.0578V8.94222C28.5361 4.92457 26.0863 2.3295 22.2977 2.3295Z" fill="#1F2B5D"/>
<path fill-rule="evenodd" clip-rule="evenodd" d="M24.9894 4.73198C25.5234 5.04752 25.7005 5.73622 25.3849 6.27022L24.418 5.69887C25.3849 6.27022 25.3849 6.27022 25.3849 6.27022L25.3843 6.27123L25.3799 6.27876L25.3677 6.29907C25.3573 6.31644 25.3423 6.34141 25.3229 6.37346C25.2841 6.43756 25.2275 6.53005 25.1547 6.64688C25.0091 6.88045 24.7981 7.21189 24.5336 7.60871C24.0058 8.40038 23.2585 9.46162 22.386 10.528C21.5185 11.5882 20.5 12.6874 19.4263 13.5311C18.383 14.3508 17.1269 15.0579 15.8077 15.0579C14.4952 15.0579 13.2185 14.3565 12.1458 13.5427C11.0398 12.7037 9.97545 11.6091 9.06156 10.5509C8.14264 9.4869 7.34855 8.42768 6.78564 7.63721C6.50353 7.24105 6.27792 6.9102 6.12204 6.67713C6.04407 6.56055 5.98345 6.4683 5.94184 6.40443C5.92103 6.37249 5.90496 6.34764 5.89385 6.33037L5.88091 6.31022L5.87617 6.3028C5.87617 6.3028 5.87555 6.30183 6.82305 5.69887L5.87555 6.30183C5.54255 5.77854 5.69681 5.08437 6.2201 4.75137C6.74332 4.41841 7.43737 4.57258 7.77043 5.09571L7.77282 5.09946L7.78256 5.11462C7.7915 5.12852 7.80533 5.14991 7.82382 5.17829C7.86081 5.23507 7.91645 5.31976 7.9891 5.42839C8.13446 5.64573 8.34756 5.95831 8.61529 6.33427C9.15206 7.08803 9.90222 8.0878 10.7615 9.08278C11.6258 10.0836 12.5737 11.048 13.5033 11.7532C14.4661 12.4836 15.2484 12.8117 15.8077 12.8117C16.3603 12.8117 17.1165 12.4893 18.0386 11.7648C18.9302 11.0643 19.8303 10.1044 20.6475 9.10567C21.4596 8.11308 22.1629 7.11533 22.6647 6.36276C22.9149 5.98746 23.1134 5.67548 23.2485 5.45864C23.3161 5.35027 23.3677 5.26582 23.402 5.20927C23.4191 5.181 23.4319 5.15972 23.4402 5.14592L23.4491 5.13092L23.451 5.12774C23.7666 4.59392 24.4555 4.41648 24.9894 4.73198Z" fill="#1F2B5D"/>
<path fill-rule="evenodd" clip-rule="evenodd" d="M10.781 14.4801C11.1001 15.0119 10.9277 15.7018 10.3958 16.0209C9.16066 16.762 8.15845 18.2677 7.82761 18.9294C7.55022 19.4842 6.87562 19.709 6.32084 19.4317C5.76606 19.1543 5.54119 18.4797 5.81858 17.9249C6.23647 17.0891 7.48042 15.1507 9.24017 14.0949C9.77204 13.7757 10.4619 13.9482 10.781 14.4801Z" fill="#1F2B5D"/>
<path fill-rule="evenodd" clip-rule="evenodd" d="M20.8345 14.4801C20.5154 15.0119 20.6879 15.7018 21.2198 16.0209C22.4549 16.762 23.4571 18.2677 23.788 18.9294C24.0653 19.4842 24.74 19.709 25.2947 19.4317C25.8495 19.1543 26.0744 18.4797 25.797 17.9249C25.3791 17.0891 24.1351 15.1507 22.3754 14.0949C21.8435 13.7757 21.1537 13.9482 20.8345 14.4801Z" fill="#1F2B5D"/>
</svg>
